<svg width="300" height="680" viewBox="0 0 300 680" version="1.1" xmlns="http://www.w3.org/2000/svg" xmlns:xlink="http://www.w3.org/1999/xlink">
<g id="Canvas" fill="none">
<g id="a5" clip-path="url(#clip0)">
<g id="Group">
<g id="Line">
<line y1="-1" x2="93" y2="-1" stroke-width="2" transform="translate(183 79)" stroke="black"/>
</g>
<g id="Line_2">
<line y1="-1" x2="93" y2="-1" stroke-width="2" transform="translate(183 209)" stroke="black"/>
</g>
<g id="Line_3">
<line y1="-1" x2="93" y2="-1" stroke-width="2" transform="translate(183 340)" stroke="black"/>
</g>
<g id="Line_4">
<line y1="-1" x2="93" y2="-1" stroke-width="2" transform="translate(183 471)" stroke="black"/>
</g>
<g id="Line_5">
<line y1="-1" x2="93" y2="-1" stroke-width="2" transform="translate(183 601)" stroke="black"/>
</g>
</g>
<g id="Group_2">
<g id="Line_6">
<line y1="-1" x2="93" y2="-1" stroke-width="2" transform="translate(24 79)" stroke="black"/>
</g>
<g id="Line_7">
<line y1="-1" x2="93" y2="-1" stroke-width="2" transform="translate(24 209)" stroke="black"/>
</g>
<g id="Line_8">
<line y1="-1" x2="93" y2="-1" stroke-width="2" transform="translate(24 340)" stroke="black"/>
</g>
<g id="Line_9">
<line y1="-1" x2="93" y2="-1" stroke-width="2" transform="translate(24 471)" stroke="black"/>
</g>
<g id="Line_10">
<line y1="-1" x2="93" y2="-1" stroke-width="2" transform="translate(24 601)" stroke="black"/>
</g>
</g>
<g id="Rectangle">
<rect x="1" y="1" width="20" height="178" stroke-width="2" transform="translate(139 66)" stroke="black"/>
</g>
<g id="Rectangle_2">
<rect x="1" y="1" width="20" height="146" stroke-width="2" transform="translate(139 266)" stroke="black"/>
</g>
<g id="Rectangle_3">
<rect x="1" y="1" width="20" height="179" stroke-width="2" transform="translate(139 434)" stroke="black"/>
</g>
<g id="Subtract">
<path fill-rule="evenodd" clip-rule="evenodd" d="M 42 0L 0 0L 0 680L 42 680L 42 0ZM 32 66L 10 66L 10 246L 32 246L 32 66ZM 10 435L 32 435L 32 615L 10 615L 10 435ZM 32 266L 10 266L 10 414L 32 414L 32 266Z" transform="translate(129 0)" fill="black" fill-opacity="0.15"/>
</g>
</g>
</g>
<defs>

<clipPath id="clip0">
<rect width="300" height="680" fill="white"/>
</clipPath>

</defs>
</svg>

